<svg xmlns="http://www.w3.org/2000/svg" viewBox="0 0 90 76" aria-hidden="true" focusable="false">
  <path d="M77,63.1,58.7,12.9,13,54.1Z" style="fill: #fc0d1a"></path>
  <g>
    <path d="M54.9,38h3.6V50.5H54.9Z" style="fill: #fff"></path>
    <path d="M46.7,45.6l1.1-4,1.1,4ZM45.9,38,41.4,50.5h4.1l.7-2.1h3.5l.7,2.1h4.1L49.8,38Z" style="fill: #fff"></path>
    <path d="M26.5,50.5h3.6v-7l2.4,5.2h2.3l2.4-5.2v7h3.6V38H36.5l-2.8,6.1L30.9,38H26.5Z" style="fill: #fff"></path>
    <path d="M59.9,38V50.5h3.7V45.7h4.6l.4-3h-5V41H69l.4-3Z" style="fill: #fff"></path>
  </g>
</svg>